<?xml version="1.0" encoding="UTF-8" standalone="no"?>
<!-- Created with Inkscape (http://www.inkscape.org/) -->

<svg
   width="6"
   height="12"
   viewBox="0 0 6 12"
   version="1.1"
   id="svg1"
   inkscape:version="1.3.1 (91b66b0, 2023-11-16)"
   sodipodi:docname="faultseg_letters.svg"
   xmlns:inkscape="http://www.inkscape.org/namespaces/inkscape"
   xmlns:sodipodi="http://sodipodi.sourceforge.net/DTD/sodipodi-0.dtd"
   xmlns="http://www.w3.org/2000/svg"
   xmlns:svg="http://www.w3.org/2000/svg">
  <sodipodi:namedview
     id="namedview1"
     pagecolor="#ffffff"
     bordercolor="#111111"
     borderopacity="1"
     inkscape:showpageshadow="0"
     inkscape:pageopacity="0"
     inkscape:pagecheckerboard="false"
     inkscape:deskcolor="#d1d1d1"
     inkscape:document-units="px"
     showgrid="true"
     inkscape:zoom="30.075921"
     inkscape:cx="6.1677247"
     inkscape:cy="9.6588896"
     inkscape:window-width="1392"
     inkscape:window-height="1212"
     inkscape:window-x="0"
     inkscape:window-y="25"
     inkscape:window-maximized="0"
     inkscape:current-layer="g126">
    <inkscape:grid
       id="grid1"
       units="px"
       originx="0"
       originy="0"
       spacingx="1"
       spacingy="1"
       empcolor="#0099e5"
       empopacity="0.30196078"
       color="#0099e5"
       opacity="0.14901961"
       empspacing="5"
       dotted="false"
       gridanglex="30"
       gridanglez="30"
       visible="true" />
  </sodipodi:namedview>
  <defs
     id="defs1" />
  <g
     inkscape:label="8"
     inkscape:groupmode="layer"
     id="layer1"
     style="display:none">
    <path
       id="rect1-4-7-88"
       style="fill:#008080"
       d="M 1,0 V 1 H 2 V 2 H 3 4 V 1 H 5 V 0 H 4 3 2 Z M 5,1 V 2 H 4 V 3 4 H 5 V 5 H 6 V 4 3 2 1 Z M 5,5 H 4 3 2 1 V 6 H 2 V 7 H 3 4 V 6 H 5 Z M 5,6 V 7 H 4 v 1 1 h 1 v 1 H 6 V 9 8 7 6 Z m 0,4 H 4 V 9 H 3 2 v 1 H 1 v 1 H 2 3 4 5 Z M 1,10 V 9 H 2 V 8 7 H 1 V 6 H 0 v 1 1 1 1 z M 1,5 V 4 H 2 V 3 2 H 1 V 1 H 0 v 1 1 1 1 z" />
  </g>
  <g
     inkscape:groupmode="layer"
     id="layer2"
     inkscape:label="1"
     style="display:none">
    <path
       id="rect1-40-5-3"
       style="fill:#008080"
       d="M 5,1 V 2 H 4 V 3 4 H 5 V 5 H 6 V 4 3 2 1 Z M 5,6 V 7 H 4 v 1 1 h 1 v 1 H 6 V 9 8 7 6 Z" />
  </g>
  <g
     inkscape:groupmode="layer"
     id="g7"
     inkscape:label="2"
     style="display:none">
    <path
       id="path1"
       style="fill:#008080"
       d="M 1,0 V 1 H 2 V 2 H 3 4 V 1 H 5 V 0 H 4 3 2 Z M 5,1 V 2 H 4 V 3 4 H 5 V 5 H 6 V 4 3 2 1 Z M 5,5 H 4 3 2 1 V 6 H 2 V 7 H 3 4 V 6 H 5 Z M 2,7 H 1 V 6 H 0 v 1 1 1 1 H 1 V 9 H 2 V 8 Z m 0,2 v 1 H 1 v 1 H 2 3 4 5 V 10 H 4 V 9 H 3 Z" />
  </g>
  <g
     inkscape:groupmode="layer"
     id="g14"
     inkscape:label="3"
     style="display:none">
    <path
       id="path8"
       style="fill:#008080"
       d="M 1,0 V 1 H 2 V 2 H 3 4 V 1 H 5 V 0 H 4 3 2 Z M 5,1 V 2 H 4 V 3 4 H 5 V 5 H 6 V 4 3 2 1 Z M 5,5 H 4 3 2 1 V 6 H 2 V 7 H 3 4 V 6 H 5 Z M 5,6 V 7 H 4 v 1 1 h 1 v 1 H 6 V 9 8 7 6 Z m 0,4 H 4 V 9 H 3 2 v 1 H 1 v 1 h 1 1 1 1 z" />
  </g>
  <g
     inkscape:groupmode="layer"
     id="g280"
     inkscape:label="4"
     style="display:none">
    <path
       id="path276"
       style="fill:#008080"
       d="M 0,1 V 2 3 4 5 H 1 V 4 H 2 V 3 2 H 1 V 1 Z M 1,5 V 6 H 2 V 7 H 3 4 V 6 H 5 V 5 H 4 3 2 Z M 5,5 H 6 V 4 3 2 1 H 5 V 2 H 4 V 3 4 H 5 Z M 5,6 V 7 H 4 v 1 1 h 1 v 1 H 6 V 9 8 7 6 Z" />
  </g>
  <g
     inkscape:groupmode="layer"
     id="g21"
     inkscape:label="5"
     style="display:none">
    <path
       id="path15"
       style="fill:#008080"
       d="M 1,0 V 1 H 2 V 2 H 3 4 V 1 H 5 V 0 H 4 3 2 Z M 2,2 H 1 V 1 H 0 V 2 3 4 5 H 1 V 4 H 2 V 3 Z M 1,5 V 6 H 2 V 7 H 3 4 V 6 H 5 V 5 H 4 3 2 Z M 5,6 V 7 H 4 v 1 1 h 1 v 1 H 6 V 9 8 7 6 Z m 0,4 H 4 V 9 H 3 2 v 1 H 1 v 1 h 1 1 1 1 z" />
  </g>
  <g
     inkscape:groupmode="layer"
     id="g28"
     inkscape:label="6"
     style="display:none">
    <path
       id="path22"
       style="fill:#008080"
       d="M 1,0 V 1 H 2 V 2 H 3 4 V 1 H 5 V 0 H 4 3 2 Z M 2,2 H 1 V 1 H 0 V 2 3 4 5 H 1 V 4 H 2 V 3 Z M 1,5 V 6 H 2 V 7 H 3 4 V 6 H 5 V 5 H 4 3 2 Z M 5,6 V 7 H 4 v 1 1 h 1 v 1 H 6 V 9 8 7 6 Z m 0,4 H 4 V 9 H 3 2 v 1 H 1 v 1 H 2 3 4 5 Z M 1,10 V 9 H 2 V 8 7 H 1 V 6 H 0 v 1 1 1 1 z" />
  </g>
  <g
     inkscape:groupmode="layer"
     id="g35"
     inkscape:label="7"
     style="display:none">
    <path
       id="path31"
       style="fill:#008080"
       d="M 1,0 V 1 H 2 V 2 H 3 4 V 1 H 5 V 0 H 4 3 2 Z M 5,1 V 2 H 4 V 3 4 H 5 V 5 H 6 V 4 3 2 1 Z M 5,6 V 7 H 4 v 1 1 h 1 v 1 H 6 V 9 8 7 6 Z" />
  </g>
  <g
     inkscape:groupmode="layer"
     id="g77"
     inkscape:label="8"
     style="display:none">
    <path
       id="path71"
       style="fill:#008080"
       d="M 1,0 V 1 H 2 V 2 H 3 4 V 1 H 5 V 0 H 4 3 2 Z M 5,1 V 2 H 4 V 3 4 H 5 V 5 H 6 V 4 3 2 1 Z M 5,5 H 4 3 2 1 V 6 H 2 V 7 H 3 4 V 6 H 5 Z M 5,6 V 7 H 4 v 1 1 h 1 v 1 H 6 V 9 8 7 6 Z m 0,4 H 4 V 9 H 3 2 v 1 H 1 v 1 H 2 3 4 5 Z M 1,10 V 9 H 2 V 8 7 H 1 V 6 H 0 v 1 1 1 1 z M 1,5 V 4 H 2 V 3 2 H 1 V 1 H 0 v 1 1 1 1 z" />
  </g>
  <g
     inkscape:groupmode="layer"
     id="g84"
     inkscape:label="9"
     style="display:none">
    <path
       id="path80"
       style="fill:#008080"
       d="M 1,0 V 1 H 2 V 2 H 3 4 V 1 H 5 V 0 H 4 3 2 Z M 5,1 V 2 H 4 V 3 4 H 5 V 5 H 6 V 4 3 2 1 Z M 5,5 H 4 3 2 1 V 6 H 2 V 7 H 3 4 V 6 H 5 Z M 5,6 V 7 H 4 v 1 1 h 1 v 1 H 6 V 9 8 7 6 Z M 1,5 V 4 H 2 V 3 2 H 1 V 1 H 0 v 1 1 1 1 z" />
  </g>
  <g
     inkscape:groupmode="layer"
     id="g105"
     inkscape:label="0"
     style="display:none">
    <path
       id="path99"
       style="fill:#008080"
       d="M 1,0 V 1 H 2 V 2 H 3 4 V 1 H 5 V 0 H 4 3 2 Z M 5,1 V 2 H 4 V 3 4 H 5 V 5 H 6 V 4 3 2 1 Z M 2,2 H 1 V 1 H 0 V 2 3 4 5 H 1 V 4 H 2 V 3 Z M 0,6 v 1 1 1 1 H 1 V 9 H 2 V 8 7 H 1 V 6 Z m 2,3 v 1 H 1 v 1 H 2 3 4 5 V 10 H 4 V 9 H 3 Z m 2,0 h 1 v 1 H 6 V 9 8 7 6 H 5 V 7 H 4 v 1 z" />
  </g>
  <g
     inkscape:groupmode="layer"
     id="g112"
     inkscape:label="a"
     style="display:none">
    <path
       id="path106"
       style="fill:#008080"
       d="M 1,0 V 1 H 2 V 2 H 3 4 V 1 H 5 V 0 H 4 3 2 Z M 5,1 V 2 H 4 V 3 4 H 5 V 5 H 6 V 4 3 2 1 Z M 5,5 H 4 3 2 1 V 6 H 2 V 7 H 3 4 V 6 H 5 Z M 5,6 V 7 H 4 v 1 1 h 1 v 1 H 6 V 9 8 7 6 Z m 0,4 H 4 V 9 H 3 2 v 1 H 1 v 1 H 2 3 4 5 Z M 1,10 V 9 H 2 V 8 7 H 1 V 6 H 0 v 1 1 1 1 z" />
  </g>
  <g
     inkscape:groupmode="layer"
     id="g119"
     inkscape:label="b"
     style="display:none">
    <path
       id="path113"
       style="fill:#008080"
       d="M 0,1 V 2 3 4 5 H 1 V 4 H 2 V 3 2 H 1 V 1 Z M 1,5 V 6 H 2 V 7 H 3 4 V 6 H 5 V 5 H 4 3 2 Z M 5,6 V 7 H 4 v 1 1 h 1 v 1 H 6 V 9 8 7 6 Z m 0,4 H 4 V 9 H 3 2 v 1 H 1 v 1 H 2 3 4 5 Z M 1,10 V 9 H 2 V 8 7 H 1 V 6 H 0 v 1 1 1 1 z" />
  </g>
  <g
     inkscape:groupmode="layer"
     id="g126"
     inkscape:label="c"
     style="display:none">
    <path
       id="rect1-4-7-88-9"
       style="fill:#008080"
       d="M 1,5 V 6 H 2 V 7 H 3 4 V 6 H 5 V 5 H 4 3 2 Z M 2,7 H 1 V 6 H 0 v 1 1 1 1 H 1 V 9 H 2 V 8 Z m 0,2 v 1 H 1 v 1 H 2 3 4 5 V 10 H 4 V 9 H 3 Z" />
  </g>
  <g
     inkscape:groupmode="layer"
     id="g133"
     inkscape:label="d"
     style="display:none">
    <path
       id="path127"
       style="fill:#008080"
       d="M 5,1 V 2 H 4 V 3 4 H 5 V 5 H 6 V 4 3 2 1 Z M 5,5 H 4 3 2 1 V 6 H 2 V 7 H 3 4 V 6 H 5 Z M 5,6 V 7 H 4 v 1 1 h 1 v 1 H 6 V 9 8 7 6 Z m 0,4 H 4 V 9 H 3 2 v 1 H 1 v 1 H 2 3 4 5 Z M 1,10 V 9 H 2 V 8 7 H 1 V 6 H 0 v 1 1 1 1 z" />
  </g>
  <g
     inkscape:groupmode="layer"
     id="g161"
     inkscape:label="e"
     style="display:none">
    <path
       id="path155"
       style="fill:#008080"
       d="M 1,0 V 1 H 2 V 2 H 3 4 V 1 H 5 V 0 H 4 3 2 Z M 5,1 V 2 H 4 V 3 4 H 5 V 5 H 6 V 4 3 2 1 Z M 5,5 H 4 3 2 1 V 6 H 2 V 7 H 3 4 V 6 H 5 Z M 2,7 H 1 V 6 H 0 v 1 1 1 1 H 1 V 9 H 2 V 8 Z m 0,2 v 1 H 1 v 1 H 2 3 4 5 V 10 H 4 V 9 H 3 Z M 1,5 V 4 H 2 V 3 2 H 1 V 1 H 0 v 1 1 1 1 z" />
  </g>
  <g
     inkscape:groupmode="layer"
     id="g168"
     inkscape:label="f"
     style="display:none">
    <path
       id="path163"
       style="fill:#008080"
       d="M 1,0 V 1 H 2 V 2 H 3 4 V 1 H 5 V 0 H 4 3 2 Z M 2,2 H 1 V 1 H 0 V 2 3 4 5 H 1 V 4 H 2 V 3 Z M 1,5 V 6 H 2 V 7 H 3 4 V 6 H 5 V 5 H 4 3 2 Z M 2,7 H 1 V 6 H 0 v 1 1 1 1 H 1 V 9 H 2 V 8 Z" />
  </g>
  <g
     inkscape:groupmode="layer"
     id="g175"
     inkscape:label="g"
     style="display:none">
    <path
       id="path169"
       style="fill:#008080"
       d="M 1,0 V 1 H 2 V 2 H 3 4 V 1 H 5 V 0 H 4 3 2 Z M 5,1 V 2 H 4 V 3 4 H 5 V 5 H 6 V 4 3 2 1 Z M 5,5 H 4 3 2 1 V 6 H 2 V 7 H 3 4 V 6 H 5 Z M 5,6 V 7 H 4 v 1 1 h 1 v 1 H 6 V 9 8 7 6 Z m 0,4 H 4 V 9 H 3 2 v 1 H 1 v 1 H 2 3 4 5 Z M 1,5 V 4 H 2 V 3 2 H 1 V 1 H 0 v 1 1 1 1 z" />
  </g>
  <g
     inkscape:groupmode="layer"
     id="g182"
     inkscape:label="h"
     style="display:none">
    <path
       id="path177"
       style="fill:#008080"
       d="M 0,1 V 2 3 4 5 H 1 V 4 H 2 V 3 2 H 1 V 1 Z M 1,5 V 6 H 2 V 7 H 3 4 V 6 H 5 V 5 H 4 3 2 Z M 5,6 V 7 H 4 v 1 1 h 1 v 1 H 6 V 9 8 7 6 Z M 2,7 H 1 V 6 H 0 v 1 1 1 1 H 1 V 9 H 2 V 8 Z" />
  </g>
  <g
     inkscape:groupmode="layer"
     id="g189"
     inkscape:label="i"
     style="display:none">
    <path
       id="path184"
       style="fill:#008080"
       d="m 0,6 v 1 1 1 1 H 1 V 9 H 2 V 8 7 H 1 V 6 Z" />
  </g>
  <g
     inkscape:groupmode="layer"
     id="g196"
     inkscape:label="j"
     style="display:none">
    <path
       id="path190"
       style="fill:#008080"
       d="M 5,1 V 2 H 4 V 3 4 H 5 V 5 H 6 V 4 3 2 1 Z M 0,6 v 1 1 1 1 H 1 V 9 H 2 V 8 7 H 1 V 6 Z m 2,3 v 1 H 1 v 1 H 2 3 4 5 V 10 H 4 V 9 H 3 Z m 2,0 h 1 v 1 H 6 V 9 8 7 6 H 5 V 7 H 4 v 1 z" />
  </g>
  <g
     inkscape:groupmode="layer"
     id="g203"
     inkscape:label="k"
     style="display:none">
    <path
       id="path198"
       style="fill:#008080"
       d="M 0,1 V 2 3 4 5 H 1 V 4 H 2 V 3 2 H 1 V 1 Z M 1,5 V 6 H 2 V 7 H 3 4 V 6 H 5 V 5 H 4 3 2 Z M 5,5 H 6 V 4 3 2 1 H 5 V 2 H 4 V 3 4 H 5 Z M 5,6 V 7 H 4 v 1 1 h 1 v 1 H 6 V 9 8 7 6 Z M 2,7 H 1 V 6 H 0 v 1 1 1 1 H 1 V 9 H 2 V 8 Z" />
  </g>
  <g
     inkscape:groupmode="layer"
     id="g217"
     inkscape:label="l"
     style="display:none">
    <path
       id="path211"
       style="fill:#008080"
       d="M 0,1 V 2 3 4 5 H 1 V 4 H 2 V 3 2 H 1 V 1 Z m 0,5 v 1 1 1 1 H 1 V 9 H 2 V 8 7 H 1 V 6 Z m 2,3 v 1 H 1 v 1 H 2 3 4 5 V 10 H 4 V 9 H 3 Z" />
  </g>
  <g
     inkscape:groupmode="layer"
     id="g224"
     inkscape:label="m"
     style="display:none">
    <path
       id="path219"
       style="fill:#008080"
       d="M 1,0 V 1 H 2 V 2 H 3 4 V 1 H 5 V 0 H 4 3 2 Z M 5,1 V 2 H 4 V 3 4 H 5 V 5 H 6 V 4 3 2 1 Z M 2,2 H 1 V 1 H 0 V 2 3 4 5 H 1 V 4 H 2 V 3 Z M 0,6 v 1 1 1 1 H 1 V 9 H 2 V 8 7 H 1 V 6 Z M 5,6 V 7 H 4 v 1 1 h 1 v 1 H 6 V 9 8 7 6 Z" />
  </g>
  <g
     inkscape:groupmode="layer"
     id="g210"
     inkscape:label="n"
     style="display:none">
    <path
       id="path205"
       style="fill:#008080"
       d="M 1,5 V 6 H 2 V 7 H 3 4 V 6 H 5 V 5 H 4 3 2 Z M 5,6 V 7 H 4 v 1 1 h 1 v 1 H 6 V 9 8 7 6 Z M 2,7 H 1 V 6 H 0 v 1 1 1 1 H 1 V 9 H 2 V 8 Z" />
  </g>
  <g
     inkscape:groupmode="layer"
     id="g154"
     inkscape:label="o"
     style="display:none">
    <path
       id="path148"
       style="fill:#008080"
       d="M 1,5 V 6 H 2 V 7 H 3 4 V 6 H 5 V 5 H 4 3 2 Z M 5,6 V 7 H 4 v 1 1 h 1 v 1 H 6 V 9 8 7 6 Z m 0,4 H 4 V 9 H 3 2 v 1 H 1 v 1 H 2 3 4 5 Z M 1,10 V 9 H 2 V 8 7 H 1 V 6 H 0 v 1 1 1 1 z" />
  </g>
  <g
     inkscape:groupmode="layer"
     id="g147"
     inkscape:label="p"
     style="display:none">
    <path
       id="path142"
       style="fill:#008080"
       d="M 1,0 V 1 H 2 V 2 H 3 4 V 1 H 5 V 0 H 4 3 2 Z M 5,1 V 2 H 4 V 3 4 H 5 V 5 H 6 V 4 3 2 1 Z M 5,5 H 4 3 2 1 V 6 H 2 V 7 H 3 4 V 6 H 5 Z M 2,7 H 1 V 6 H 0 v 1 1 1 1 H 1 V 9 H 2 V 8 Z M 1,5 V 4 H 2 V 3 2 H 1 V 1 H 0 v 1 1 1 1 z" />
  </g>
  <g
     inkscape:groupmode="layer"
     id="g140"
     inkscape:label="q"
     style="display:none">
    <path
       id="path136"
       style="fill:#008080"
       d="M 1,0 V 1 H 2 V 2 H 3 4 V 1 H 5 V 0 H 4 3 2 Z M 5,1 V 2 H 4 V 3 4 H 5 V 5 H 6 V 4 3 2 1 Z M 5,5 H 4 3 2 1 V 6 H 2 V 7 H 3 4 V 6 H 5 Z M 5,6 V 7 H 4 v 1 1 h 1 v 1 H 6 V 9 8 7 6 Z M 1,5 V 4 H 2 V 3 2 H 1 V 1 H 0 v 1 1 1 1 z" />
  </g>
  <g
     inkscape:groupmode="layer"
     id="g98"
     inkscape:label="r"
     style="display:none">
    <path
       id="path93"
       style="fill:#008080"
       d="M 1,5 V 6 H 2 V 7 H 3 4 V 6 H 5 V 5 H 4 3 2 Z M 2,7 H 1 V 6 H 0 v 1 1 1 1 H 1 V 9 H 2 V 8 Z" />
  </g>
  <g
     inkscape:groupmode="layer"
     id="g91"
     inkscape:label="s"
     style="display:none">
    <path
       id="path85"
       style="fill:#008080"
       d="M 1,0 V 1 H 2 V 2 H 3 4 V 1 H 5 V 0 H 4 3 2 Z M 2,2 H 1 V 1 H 0 V 2 3 4 5 H 1 V 4 H 2 V 3 Z M 1,5 V 6 H 2 V 7 H 3 4 V 6 H 5 V 5 H 4 3 2 Z M 5,6 V 7 H 4 v 1 1 h 1 v 1 H 6 V 9 8 7 6 Z m 0,4 H 4 V 9 H 3 2 v 1 H 1 v 1 h 1 1 1 1 z" />
  </g>
  <g
     inkscape:groupmode="layer"
     id="g231"
     inkscape:label="t"
     style="display:none">
    <path
       id="path227"
       style="fill:#008080"
       d="M 1,5 V 6 H 2 V 7 H 3 4 V 6 H 5 V 5 H 4 3 2 Z M 5,6 V 7 H 4 v 1 1 h 1 v 1 H 6 V 9 8 7 6 Z" />
  </g>
  <g
     inkscape:groupmode="layer"
     id="g245"
     inkscape:label="u"
     style="display:none">
    <path
       id="path239"
       style="fill:#008080"
       d="M 0,1 V 2 3 4 5 H 1 V 4 H 2 V 3 2 H 1 V 1 Z M 5,1 V 2 H 4 V 3 4 H 5 V 5 H 6 V 4 3 2 1 Z M 0,6 v 1 1 1 1 H 1 V 9 H 2 V 8 7 H 1 V 6 Z m 2,3 v 1 H 1 v 1 H 2 3 4 5 V 10 H 4 V 9 H 3 Z m 2,0 h 1 v 1 H 6 V 9 8 7 6 H 5 V 7 H 4 v 1 z" />
  </g>
  <g
     inkscape:groupmode="layer"
     id="g259"
     inkscape:label="v"
     style="display:none">
    <path
       id="path253"
       style="fill:#008080"
       d="m 0,6 v 1 1 1 1 H 1 V 9 H 2 V 8 7 H 1 V 6 Z m 2,3 v 1 H 1 v 1 H 2 3 4 5 V 10 H 4 V 9 H 3 Z m 2,0 h 1 v 1 H 6 V 9 8 7 6 H 5 V 7 H 4 v 1 z" />
  </g>
  <g
     inkscape:groupmode="layer"
     id="g273"
     inkscape:label="w"
     style="display:none">
    <path
       id="path267"
       style="fill:#008080"
       d="m 0,6 v 1 1 1 1 H 1 V 9 H 2 V 8 7 H 1 V 6 Z m 2,3 v 1 H 1 v 1 H 2 3 4 5 V 10 H 4 V 9 H 3 Z m 2,0 h 1 v 1 H 6 V 9 8 7 6 H 5 V 7 H 4 v 1 z" />
  </g>
  <g
     inkscape:groupmode="layer"
     id="g266"
     inkscape:label="x"
     style="display:none">
    <path
       id="path261"
       style="fill:#008080"
       d="M 0,1 V 2 3 4 5 H 1 V 4 H 2 V 3 2 H 1 V 1 Z M 1,5 V 6 H 2 V 7 H 3 4 V 6 H 5 V 5 H 4 3 2 Z M 5,5 H 6 V 4 3 2 1 H 5 V 2 H 4 V 3 4 H 5 Z M 5,6 V 7 H 4 v 1 1 h 1 v 1 H 6 V 9 8 7 6 Z M 2,7 H 1 V 6 H 0 v 1 1 1 1 H 1 V 9 H 2 V 8 Z" />
  </g>
  <g
     inkscape:groupmode="layer"
     id="g252"
     inkscape:label="y"
     style="display:none">
    <path
       id="path246"
       style="fill:#008080"
       d="M 0,1 V 2 3 4 5 H 1 V 4 H 2 V 3 2 H 1 V 1 Z M 1,5 V 6 H 2 V 7 H 3 4 V 6 H 5 V 5 H 4 3 2 Z M 5,5 H 6 V 4 3 2 1 H 5 V 2 H 4 V 3 4 H 5 Z M 5,6 V 7 H 4 v 1 1 h 1 v 1 H 6 V 9 8 7 6 Z m 0,4 H 4 V 9 H 3 2 v 1 H 1 v 1 h 1 1 1 1 z" />
  </g>
  <g
     inkscape:groupmode="layer"
     id="g238"
     inkscape:label="z"
     style="display:none">
    <path
       id="path232"
       style="fill:#008080"
       d="M 1,0 V 1 H 2 V 2 H 3 4 V 1 H 5 V 0 H 4 3 2 Z M 5,1 V 2 H 4 V 3 4 H 5 V 5 H 6 V 4 3 2 1 Z M 5,5 H 4 3 2 1 V 6 H 2 V 7 H 3 4 V 6 H 5 Z M 2,7 H 1 V 6 H 0 v 1 1 1 1 H 1 V 9 H 2 V 8 Z m 0,2 v 1 H 1 v 1 H 2 3 4 5 V 10 H 4 V 9 H 3 Z" />
  </g>
</svg>
